<svg width="53" height="53" viewBox="0 0 53 53" fill="none" xmlns="http://www.w3.org/2000/svg">
<g clip-path="url(#clip0_4_6)">
<path d="M4.41667 8.81787C4.42071 8.23792 4.65274 7.68283 5.06263 7.27252C5.47253 6.86221 6.02738 6.62963 6.60733 6.625H46.3927C47.6028 6.625 48.5833 7.60771 48.5833 8.81787V44.1821C48.5793 44.7621 48.3473 45.3172 47.9374 45.7275C47.5275 46.1378 46.9726 46.3704 46.3927 46.375H6.60733C6.02613 46.3744 5.46893 46.1431 5.05817 45.7319C4.6474 45.3208 4.41667 44.7633 4.41667 44.1821V8.81787ZM8.83333 11.0417V41.9583H44.1667V11.0417H8.83333ZM23.4569 18.5831L34.2314 25.7646C34.3525 25.8453 34.4519 25.9546 34.5206 26.0829C34.5894 26.2112 34.6253 26.3545 34.6253 26.5C34.6253 26.6455 34.5894 26.7888 34.5206 26.9171C34.4519 27.0454 34.3525 27.1547 34.2314 27.2354L23.4547 34.4169C23.3218 34.505 23.1676 34.5554 23.0083 34.563C22.8491 34.5705 22.6908 34.5348 22.5502 34.4596C22.4096 34.3844 22.292 34.2726 22.2098 34.136C22.1276 33.9994 22.0839 33.8431 22.0833 33.6837V19.3163C22.0836 19.1565 22.1273 18.9998 22.2096 18.8629C22.2919 18.7259 22.4098 18.6139 22.5507 18.5387C22.6917 18.4634 22.8504 18.4278 23.01 18.4357C23.1695 18.4435 23.324 18.4945 23.4569 18.5831Z" fill="white"/>
</g>
<defs>
<clipPath id="clip0_4_6">
<rect width="53" height="53" fill="white"/>
</clipPath>
</defs>
</svg>
